<?xml version="1.0" standalone="no"?>
<!DOCTYPE svg PUBLIC "-//W3C//DTD SVG 20010904//EN"
 "http://www.w3.org/TR/2001/REC-SVG-20010904/DTD/svg10.dtd">
<svg version="1.0" xmlns="http://www.w3.org/2000/svg"
 width="481.000000pt" height="311.000000pt" viewBox="0 0 481.000000 311.000000"
 preserveAspectRatio="xMidYMid meet">

<g transform="translate(0.000000,311.000000) scale(0.100000,-0.100000)"
fill="#000000" stroke="none">
<path d="M2006 2825 c-273 -57 -510 -206 -677 -428 -60 -79 -137 -227 -159
-303 l-12 -40 -101 -13 c-214 -27 -368 -102 -522 -256 -138 -138 -215 -278
-251 -454 -22 -112 -15 -304 15 -409 86 -296 314 -521 628 -619 l88 -28 1355
-3 c1246 -2 1361 -1 1425 14 603 147 915 809 645 1369 -161 333 -487 575 -853
635 -72 11 -291 12 -358 1 l-47 -7 -53 80 c-138 209 -365 370 -620 442 -81 23
-117 27 -264 30 -120 2 -190 -1 -239 -11z m402 -177 c31 -31 -3 -87 -42 -72
-26 10 -32 55 -11 71 23 16 37 17 53 1z m-427 -200 c15 -28 -22 -68 -48 -52
-35 22 -40 44 -15 64 26 21 47 17 63 -12z m420 22 c23 -13 25 -52 4 -70 -12
-10 -21 -10 -40 -2 -29 13 -33 43 -9 66 18 19 20 19 45 6z m453 -52 c16 -26
-4 -53 -40 -53 -23 0 -30 5 -32 23 -7 47 47 69 72 30z m-1314 -143 c15 -18 10
-45 -12 -59 -33 -20 -69 20 -54 60 7 18 50 18 66 -1z m220 0 c16 -19 4 -52
-22 -61 -30 -9 -62 29 -48 57 13 22 52 25 70 4z m435 -19 c0 -36 -27 -56 -52
-40 -40 25 -20 77 26 72 21 -2 26 -8 26 -32z m435 19 c15 -18 10 -45 -12 -59
-33 -20 -69 20 -54 60 7 18 50 18 66 -1z m225 -205 c0 -13 -8 -28 -17 -34 -40
-25 -80 43 -42 71 24 17 59 -5 59 -37z m-1315 25 c26 -32 -13 -81 -47 -59 -35
22 -23 74 17 74 10 0 23 -7 30 -15z m870 0 c26 -32 -13 -81 -47 -59 -35 22
-23 74 17 74 10 0 23 -7 30 -15z m220 0 c26 -32 -13 -81 -47 -59 -35 22 -23
74 17 74 10 0 23 -7 30 -15z m444 -7 c15 -24 -3 -52 -37 -56 -33 -4 -53 28
-37 59 14 25 58 23 74 -3z m216 2 c8 -14 8 -26 0 -40 -19 -35 -80 -20 -80 20
0 40 61 55 80 20z m-1970 -175 c26 -32 -13 -81 -47 -59 -35 22 -23 74 17 74
10 0 23 -7 30 -15z m434 -1 c29 -29 12 -64 -31 -64 -32 0 -46 31 -27 58 18 26
37 28 58 6z m656 2 c6 -8 10 -25 8 -38 -6 -42 -78 -32 -78 11 0 37 46 55 70
27z m224 -8 c16 -26 -4 -53 -40 -53 -23 0 -30 5 -32 23 -7 47 47 69 72 30z
m430 6 c29 -29 12 -64 -31 -64 -19 0 -43 25 -43 44 0 10 32 36 45 36 7 0 21
-7 29 -16z m220 0 c19 -18 19 -20 6 -45 -13 -23 -52 -25 -70 -4 -10 12 -10 21
-2 40 13 29 43 33 66 9z m216 2 c6 -8 10 -25 8 -38 -6 -42 -78 -32 -78 11 0
37 46 55 70 27z m-1312 -178 c36 -36 -11 -96 -49 -62 -23 21 -24 37 -3 58 19
19 36 20 52 4z m433 2 c25 -14 25 -56 -1 -70 -45 -24 -86 44 -42 69 21 13 20
13 43 1z m665 -11 c13 -15 16 -24 8 -36 -20 -32 -41 -38 -63 -19 -25 23 -26
39 -5 60 21 21 37 20 60 -5z m-2219 -201 c17 -16 23 -32 23 -64 0 -24 -5 -46
-10 -49 -7 -4 -7 -12 0 -25 17 -31 11 -85 -11 -114 l-20 -26 -175 0 -175 0 3
23 c3 22 6 22 168 27 l165 5 3 32 3 33 -168 2 c-166 3 -168 3 -171 26 l-3 22
159 0 c172 0 187 4 180 52 -3 23 -4 23 -163 26 -88 1 -164 7 -169 12 -5 5 -6
16 -3 24 5 14 31 16 174 16 157 0 168 -1 190 -22z m430 0 c17 -16 23 -32 23
-64 0 -24 -5 -46 -10 -49 -7 -4 -7 -12 0 -25 19 -35 12 -95 -13 -119 -23 -21
-31 -21 -193 -19 -161 3 -169 4 -169 23 0 19 8 20 165 25 l165 5 3 33 3 32
-155 0 c-85 0 -161 3 -170 6 -16 6 -23 44 -8 44 4 1 77 3 162 5 85 3 159 5
163 5 5 0 7 15 5 33 l-3 32 -160 3 c-88 1 -164 7 -169 12 -5 5 -6 16 -3 24 5
14 31 16 174 16 157 0 168 -1 190 -22z m2563 3 c5 -11 10 -47 10 -80 l0 -61
60 0 60 0 0 53 c0 29 5 58 12 65 18 18 46 14 58 -7 16 -30 12 -133 -6 -159
-15 -22 -20 -22 -224 -22 -250 0 -240 -5 -240 111 0 76 1 79 26 85 35 9 42 -2
46 -66 l3 -55 63 -5 62 -5 0 76 c0 42 3 79 7 82 13 14 53 6 63 -12z m-402 -53
l3 -58 39 0 c22 0 45 -7 54 -16 19 -18 19 -20 6 -45 -10 -17 -22 -19 -143 -19
-90 0 -137 4 -145 12 -32 32 2 68 64 68 l44 0 0 44 c0 65 7 78 44 74 30 -3 31
-4 34 -60z m-1670 -91 l3 -137 190 0 c160 0 191 -2 195 -15 4 -8 1 -22 -6 -30
-10 -12 -46 -15 -196 -15 l-184 0 0 -205 0 -205 233 -2 c224 -3 232 -4 232
-23 0 -20 -7 -20 -430 -20 -423 0 -430 0 -430 20 0 19 8 20 173 23 l172 2 0
369 c0 202 3 371 7 375 4 4 14 5 23 4 12 -3 15 -26 18 -141z m1322 103 c8 -15
6 -24 -10 -40 -19 -19 -31 -20 -162 -18 -127 3 -143 1 -146 -14 -3 -15 14 -17
173 -20 172 -3 177 -4 196 -27 21 -26 26 -93 9 -136 -8 -22 -15 -26 -42 -23
l-33 3 3 53 3 52 -155 0 -155 0 -3 -102 -3 -103 -30 0 -30 0 -3 102 -3 102
-135 3 c-75 2 -142 -1 -150 -5 -8 -5 -14 -24 -14 -47 0 -56 -8 -70 -41 -70
-35 0 -44 25 -37 106 7 87 10 88 208 92 160 3 170 4 170 23 0 18 -8 19 -154
19 -147 0 -155 1 -161 20 -15 49 -7 50 356 50 327 0 339 -1 349 -20z m-2290
-30 c0 -6 -60 -10 -160 -10 -100 0 -160 4 -160 10 0 6 60 10 160 10 100 0 160
-4 160 -10z m430 0 c0 -6 -60 -10 -160 -10 -100 0 -160 4 -160 10 0 6 60 10
160 10 100 0 160 -4 160 -10z m-435 -120 c4 -7 -50 -10 -154 -10 -101 0 -161
4 -161 10 0 6 58 10 154 10 93 0 157 -4 161 -10z m430 0 c4 -7 -50 -10 -155
-10 -105 0 -159 3 -155 10 4 6 67 10 155 10 88 0 151 -4 155 -10z m2104 -54
c8 -9 17 -90 23 -211 10 -175 10 -197 -4 -211 -15 -15 -18 -12 -38 32 -19 40
-24 78 -31 213 -7 120 -6 167 2 177 15 18 33 18 48 0z m181 -1 c9 -11 9 -38 0
-122 -11 -109 -27 -221 -36 -258 -4 -17 0 -21 23 -20 23 0 29 -5 31 -27 2 -20
-4 -31 -23 -44 -26 -17 -148 -64 -165 -64 -6 0 -10 18 -10 39 0 35 3 40 29 46
31 7 31 5 57 145 2 14 11 87 19 163 8 75 17 142 20 147 9 15 41 12 55 -5z
m-853 -11 c3 -9 2 -24 -4 -33 -8 -13 -29 -16 -109 -16 -87 0 -99 2 -102 18 -8
42 3 47 108 47 84 0 102 -3 107 -16z m381 -8 c7 -33 -25 -46 -111 -46 -43 0
-87 5 -98 10 -19 11 -26 40 -12 54 4 3 54 5 112 4 95 -3 106 -5 109 -22z
m1032 -11 c6 -8 10 -22 8 -32 -3 -16 -17 -18 -130 -21 -109 -2 -126 -5 -131
-20 -3 -9 -8 -25 -12 -34 -7 -17 2 -18 102 -18 161 0 153 11 153 -214 0 -207
-1 -211 -72 -211 -30 0 -45 6 -59 24 -10 13 -19 18 -19 12 0 -17 -57 -13 -64
5 -3 9 -6 83 -6 165 l0 149 -35 0 -35 0 -2 -162 -3 -163 -30 0 -30 0 -3 163
-3 163 -32 -3 -32 -3 -2 -150 c-2 -82 -5 -160 -8 -171 -6 -27 -30 -37 -56 -24
-18 10 -19 23 -19 195 l0 184 26 20 c20 16 41 21 83 21 55 0 58 1 74 35 l16
34 -102 3 c-89 3 -102 5 -105 21 -9 47 -8 47 261 47 210 0 257 -3 267 -15z
m-3530 -294 c0 -202 -3 -250 -14 -254 -32 -13 -36 15 -36 260 l0 243 25 0 25
0 0 -249z m525 179 c30 -38 64 -74 75 -80 11 -6 20 -17 20 -26 0 -26 -30 -28
-56 -4 l-24 23 0 -50 c0 -60 -15 -77 -71 -78 l-39 0 0 -53 0 -53 62 3 c60 3
62 4 70 36 9 33 25 41 45 21 14 -14 6 -67 -14 -90 -12 -15 -10 -17 20 -23 69
-13 67 -18 67 225 l0 219 30 0 30 0 0 -210 c0 -240 -7 -273 -59 -285 -65 -14
-154 15 -136 45 4 6 -18 10 -64 10 -90 0 -101 10 -101 93 l0 62 -34 0 c-31 0
-35 -4 -45 -37 -14 -47 -58 -83 -123 -103 -72 -21 -98 -20 -98 5 0 19 9 23
102 45 32 8 78 51 78 74 0 12 -10 16 -39 16 -54 1 -71 18 -71 71 l0 44 -25
-16 c-27 -18 -55 -13 -55 9 0 8 18 26 39 40 22 15 54 47 71 72 18 25 37 44 43
42 21 -7 20 -39 -2 -68 l-22 -29 152 0 151 0 -32 40 c-31 40 -32 40 -101 40
-62 0 -69 2 -69 20 0 18 7 20 85 20 l84 0 56 -70z m1586 34 c9 -11 10 -20 2
-32 -15 -25 -201 -25 -216 0 -8 12 -7 21 2 32 11 13 34 16 106 16 72 0 95 -3
106 -16z m384 -19 l0 -30 -102 -3 c-95 -2 -103 -1 -113 18 -22 41 2 51 114 48
l101 -3 0 -30z m-113 -90 c-18 -8 -46 -24 -62 -35 -26 -19 -43 -20 -238 -20
-137 0 -213 4 -217 11 -4 5 -4 21 -1 35 l6 24 273 0 c246 -1 269 -2 239 -15z
m214 -40 c116 -47 180 -191 140 -313 -19 -58 -43 -84 -56 -63 -4 8 0 31 11 55
27 59 24 122 -7 185 -67 133 -241 157 -342 47 -64 -69 -78 -157 -38 -237 14
-29 15 -35 2 -47 -12 -13 -17 -9 -34 24 -61 121 -21 263 94 330 74 44 153 50
230 19z m-357 -90 c-20 -33 -24 -35 -73 -35 -46 0 -56 -4 -82 -32 -68 -74 -69
-71 29 -66 l87 4 0 -36 0 -37 -102 -7 c-193 -12 -299 -10 -309 5 -24 39 -1 57
77 60 60 2 62 3 108 56 l47 53 -100 0 c-92 0 -100 2 -106 20 -15 46 3 50 231
50 l213 0 -20 -35z m327 6 c48 -22 80 -59 95 -111 12 -39 7 -93 -11 -120 -17
-25 -34 17 -31 76 2 46 -1 55 -32 88 -30 31 -40 36 -81 36 -90 0 -140 -51
-135 -136 5 -72 -32 -88 -45 -19 -8 43 7 104 36 140 26 33 91 65 133 65 17 0
48 -9 71 -19z m-17 -87 c37 -31 42 -78 11 -117 -29 -37 -25 -52 14 -54 60 -3
72 -16 79 -80 8 -76 -11 -107 -71 -111 -38 -3 -47 2 -106 55 -35 32 -65 64
-65 71 -1 19 27 26 55 14 23 -11 24 -11 24 33 0 34 -4 45 -15 45 -26 0 -65 50
-65 82 0 37 48 88 83 88 14 0 39 -12 56 -26z"/>
<path d="M4140 918 l0 -144 35 4 36 4 -3 137 -3 136 -32 3 -33 3 0 -143z"/>
<path d="M954 1036 c-3 -8 -4 -25 -2 -38 3 -23 5 -23 151 -26 160 -3 166 -1
153 53 l-6 25 -146 0 c-116 0 -146 -3 -150 -14z"/>
</g>
</svg>
